<?xml version="1.0" encoding="utf-8"?>
<!-- Generator: Adobe Illustrator 25.0.1, SVG Export Plug-In . SVG Version: 6.00 Build 0)  -->
<svg version="1.1" xmlns="http://www.w3.org/2000/svg" xmlns:xlink="http://www.w3.org/1999/xlink" x="0px" y="0px"
	 viewBox="0 0 600 600" style="enable-background:new 0 0 600 600;" xml:space="preserve">
<style type="text/css">
	.st0{fill:#FFFFFF;}
	.st1{fill:#FFFFFF;stroke:#FF6369;stroke-width:13;stroke-miterlimit:10;}
	.st2{fill:#FF6369;}
	.st3{display:none;}
	.st4{fill:none;stroke:#FF6369;stroke-width:3;stroke-linecap:round;stroke-linejoin:round;stroke-miterlimit:10;}
	.st5{fill:#101010;}
	.st6{fill:none;stroke:#FFFFFF;stroke-width:3;stroke-linecap:round;stroke-linejoin:round;stroke-miterlimit:10;}
</style>
<g id="Logo_-_Colour">
	<rect id="Favicon_Bg" class="st0" width="600" height="600"/>
	<rect id="Favicon_Bg_1_" x="30.9" y="30.9" class="st1" width="538.2" height="538.2"/>
	<g>
		<path class="st2" d="M372.49,116.15c-1.45-1-3.34-1.01-4.8-0.01L333.5,139.7l-30.37-37.23c-0.1-0.12-0.24-0.18-0.34-0.28
			c-0.1-0.1-0.16-0.24-0.27-0.33c-0.11-0.09-0.24-0.11-0.35-0.18c-0.25-0.17-0.5-0.3-0.78-0.41c-0.24-0.09-0.46-0.17-0.71-0.21
			c-0.28-0.06-0.56-0.08-0.85-0.07c-0.25,0-0.49,0.02-0.74,0.07c-0.27,0.05-0.53,0.13-0.79,0.24c-0.25,0.1-0.49,0.23-0.72,0.38
			c-0.12,0.08-0.26,0.1-0.37,0.2c-0.12,0.1-0.17,0.23-0.28,0.34c-0.1,0.1-0.23,0.16-0.33,0.27l-30.1,37.21l-34.19-23.55
			c-1.44-1-3.35-0.98-4.79,0.01c-1.44,1.01-2.1,2.8-1.67,4.5l14.96,58.17c0.48,1.86,2.15,3.16,4.08,3.16h54.99h0.27h54.99
			c1.92,0,3.6-1.3,4.08-3.16l14.96-58.17C374.6,118.95,373.93,117.16,372.49,116.15z"/>
		<g>
			<path class="st2" d="M211.05,449.02c-32.7,0-59.4-6-81-28.2l33.6-33.6c11.1,11.1,30.6,15,47.7,15c20.7,0,30.6-6.9,30.6-19.2
				c0-5.1-1.2-9.3-4.2-12.6c-2.7-2.7-7.2-4.8-14.1-5.7l-25.8-3.6c-18.9-2.7-33.3-9-42.9-18.9c-9.9-10.2-14.7-24.6-14.7-42.9
				c0-39,29.4-67.5,78-67.5c30.6,0,53.7,7.2,72,25.5l-33,33c-13.5-13.5-31.2-12.6-40.5-12.6c-18.3,0-25.8,10.5-25.8,19.8
				c0,2.7,0.9,6.6,4.2,9.9c2.7,2.7,7.2,5.4,14.7,6.3l25.8,3.6c19.2,2.7,33,8.7,42,17.7c11.4,11.1,15.9,27,15.9,46.8
				C293.55,425.32,256.05,449.02,211.05,449.02z"/>
			<path class="st2" d="M409.05,447.22l-37.8-79.5h-17.7v79.5h-52.5v-213.6h84.6c47.4,0,72.9,33.6,72.9,68.7
				c0,29.1-18,47.4-34.8,55.8l46.2,89.1H409.05z M383.25,280.72h-29.7v43.2h29.7c14.4,0,22.8-10.5,22.8-21.6
				C406.05,291.22,397.65,280.72,383.25,280.72z"/>
		</g>
	</g>
</g>
<g id="Logo_-_White">
</g>
<g id="Logo_Big_-_Colour">
</g>
<g id="Logo_Big_-_White">
</g>
</svg>
