<?xml version="1.0" encoding="utf-8"?>
<!-- Generator: Adobe Illustrator 25.0.1, SVG Export Plug-In . SVG Version: 6.00 Build 0)  -->
<svg version="1.1" id="Layer_1" xmlns="http://www.w3.org/2000/svg" xmlns:xlink="http://www.w3.org/1999/xlink" x="0px" y="0px"
	 viewBox="0 0 1202 1467.1" style="enable-background:new 0 0 1202 1467.1;" xml:space="preserve">
<style type="text/css">
	.st0{display:none;clip-path:url(#SVGID_6_);}
	.st1{clip-path:url(#SVGID_8_);}
</style>
<g>
	<defs>
		<rect id="SVGID_1_" x="310.2" y="256.2" width="880" height="880"/>
	</defs>
	<clipPath id="SVGID_2_">
		<use xlink:href="#SVGID_1_"  style="overflow:visible;"/>
	</clipPath>
	<g style="clip-path:url(#SVGID_2_);">
		
			<image style="overflow:visible;" width="1974" height="1481" xlink:href="9BB27A13.jpg"  transform="matrix(0.6266 0 0 0.6266 130.5732 225.9673)">
		</image>
	</g>
</g>
<g>
	<defs>
		<rect id="SVGID_3_" x="86.6" y="32.5" width="513.6" height="513.6"/>
	</defs>
	<clipPath id="SVGID_4_">
		<use xlink:href="#SVGID_3_"  style="overflow:visible;"/>
	</clipPath>
	<g style="clip-path:url(#SVGID_4_);">
		
			<image style="overflow:visible;" width="1974" height="1481" xlink:href="9BB27A11.jpg"  transform="matrix(0.3653 0 0 0.3653 -14.4129 16.7244)">
		</image>
	</g>
</g>
<g>
	<g>
		<defs>
			<rect id="SVGID_5_" x="11.8" y="1136.2" width="298.4" height="298.4"/>
		</defs>
		<clipPath id="SVGID_6_">
			<use xlink:href="#SVGID_5_"  style="overflow:visible;"/>
		</clipPath>
		<g transform="matrix(1 0 0 1 0 0)" class="st0">
			
				<image style="display:inline;overflow:visible;enable-background:new    ;" width="691" height="1034" xlink:href="9BB27A17.jpg"  transform="matrix(-0.4843 0 0 0.4843 315.5179 1034.9954)">
			</image>
		</g>
	</g>
	<g>
		<defs>
			<rect id="SVGID_7_" x="11.8" y="1136.2" width="298.4" height="298.4"/>
		</defs>
		<clipPath id="SVGID_8_">
			<use xlink:href="#SVGID_7_"  style="overflow:visible;"/>
		</clipPath>
		<g class="st1">
			
				<image style="overflow:visible;enable-background:new    ;" width="2013" height="2887" xlink:href="9BB27A10.jpg"  transform="matrix(-0.2549 0 0 0.2549 329.3551 891.5198)">
			</image>
		</g>
		<g class="st1">
			
				<image style="overflow:visible;" width="2070" height="1380" xlink:href="9BB27A1E.jpg"  transform="matrix(0.2259 0 0 0.2259 -68.1042 1130.7972)">
			</image>
		</g>
	</g>
</g>
</svg>
